<svg width="80" height="80" viewBox="0 0 80 80" fill="none" xmlns="http://www.w3.org/2000/svg">
<g clip-path="url(#clip0_1284_32841)">
<path d="M67.9874 9.01074H65.6599V66.1921C65.6599 69.9908 62.5677 73.083 58.769 73.083H35.1865H16.4336V75.2027C16.4336 77.63 18.4036 79.5999 20.8309 79.5999H44.405H67.9791C70.4063 79.5999 72.3763 77.63 72.3763 75.2027V13.408C72.3764 10.9808 70.4146 9.01074 67.9874 9.01074Z" fill="#181B3A"/>
<path d="M35.1867 70.5892H58.7608C61.188 70.5892 63.1581 68.6192 63.1581 66.1921V9.01069V4.39728C63.1581 1.97005 61.188 0 58.7608 0H35.1867H27.3481V1.45468C27.3646 1.6043 27.373 1.76224 27.373 1.92018V11.5044V13.9649C27.373 17.3813 24.5966 20.1577 21.1802 20.1577H18.7197H9.1355C9.01081 20.1577 8.87781 20.1494 8.75312 20.1411H7.22363V66.1921C7.22363 68.6192 9.19368 70.5892 11.6209 70.5892H16.4421H35.1867ZM36.0761 55.6435H20.7064C19.5593 55.6435 18.6283 54.7124 18.6283 53.5654C18.6283 52.4182 19.5593 51.4873 20.7064 51.4873H36.0844C37.2316 51.4873 38.1626 52.4182 38.1626 53.5654C38.1626 54.7124 37.2232 55.6435 36.0761 55.6435ZM51.4542 45.0369H20.7064C19.5593 45.0369 18.6283 44.1058 18.6283 42.9588C18.6283 41.8116 19.5593 40.8807 20.7064 40.8807H51.4542C52.6013 40.8807 53.5323 41.8116 53.5323 42.9588C53.5323 44.1058 52.6013 45.0369 51.4542 45.0369ZM20.7064 29.6172H51.4542C52.6013 29.6172 53.5323 30.5482 53.5323 31.6954C53.5323 32.8425 52.6013 33.7735 51.4542 33.7735H20.7064C19.5593 33.7735 18.6283 32.8425 18.6283 31.6954C18.6283 30.5482 19.5593 29.6172 20.7064 29.6172Z" fill="#181B3A"/>
<path d="M9.13551 17.664H21.1802C21.1886 17.664 21.2052 17.664 21.2135 17.664C23.2251 17.6474 24.8543 16.0181 24.871 14.0065C24.871 13.9982 24.871 13.9816 24.871 13.9732V1.9202C24.871 0.806336 23.9566 0.0665283 23.0091 0.0665283C22.5519 0.0665283 22.0947 0.232777 21.7123 0.61515L7.82214 14.5052C6.6584 15.669 7.48133 17.664 9.13551 17.664Z" fill="#181B3A"/>
</g>
<defs>
<clipPath id="clip0_1284_32841">
<rect width="79.5999" height="79.6" fill="white"/>
</clipPath>
</defs>
</svg>
