<svg width="36" height="36" viewBox="0 0 36 36" fill="none" xmlns="http://www.w3.org/2000/svg">
<g clip-path="url(#clip0_1210_32997)">
<path d="M19.5 1.49995C19.5 1.10213 19.658 0.720599 19.9393 0.439294C20.2206 0.157989 20.6022 -4.59545e-05 21 -4.59545e-05C24.9769 0.00432144 28.7897 1.58608 31.6018 4.39818C34.4139 7.21028 35.9956 11.023 36 15C36 15.3978 35.8419 15.7793 35.5606 16.0606C35.2793 16.3419 34.8978 16.5 34.5 16.5C34.1022 16.5 33.7206 16.3419 33.4393 16.0606C33.158 15.7793 33 15.3978 33 15C32.9964 11.8185 31.731 8.76828 29.4813 6.51862C27.2316 4.26896 24.1815 3.00353 21 2.99995C20.6022 2.99995 20.2206 2.84192 19.9393 2.56061C19.658 2.27931 19.5 1.89778 19.5 1.49995ZM21 8.99996C22.5913 8.99996 24.1174 9.6321 25.2426 10.7573C26.3678 11.8825 27 13.4087 27 15C27 15.3978 27.158 15.7793 27.4393 16.0606C27.7206 16.3419 28.1022 16.5 28.5 16.5C28.8978 16.5 29.2793 16.3419 29.5606 16.0606C29.8419 15.7793 30 15.3978 30 15C29.9976 12.6137 29.0486 10.3259 27.3613 8.63863C25.674 6.95131 23.3862 6.00234 21 5.99995C20.6022 5.99995 20.2206 6.15799 19.9393 6.43929C19.658 6.7206 19.5 7.10213 19.5 7.49995C19.5 7.89778 19.658 8.27931 19.9393 8.56061C20.2206 8.84192 20.6022 8.99996 21 8.99996ZM34.6395 25.1085C35.5087 25.9801 35.9969 27.1609 35.9969 28.392C35.9969 29.623 35.5087 30.8038 34.6395 31.6755L33.2745 33.249C20.9895 45.0105 -8.90552 15.123 2.67448 2.79895L4.39948 1.29895C5.27213 0.45397 6.44238 -0.0134723 7.65703 -0.00224369C8.87169 0.00898495 10.0331 0.497982 10.89 1.35895C10.9365 1.40545 13.716 5.01595 13.716 5.01595C14.5407 5.8824 14.9998 7.03335 14.9979 8.22956C14.9959 9.42577 14.5331 10.5752 13.7055 11.439L11.9685 13.623C12.9298 15.9586 14.3431 18.0813 16.1272 19.8691C17.9114 21.6569 20.0313 23.0745 22.365 24.0405L24.5625 22.293C25.4263 21.466 26.5756 21.0037 27.7714 21.002C28.9673 21.0003 30.1178 21.4595 30.984 22.284C30.984 22.284 34.593 25.062 34.6395 25.1085ZM32.5755 27.2895C32.5755 27.2895 28.986 24.528 28.9395 24.4815C28.6305 24.1751 28.2129 24.0031 27.7777 24.0031C27.3426 24.0031 26.925 24.1751 26.616 24.4815C26.5755 24.5235 23.55 26.934 23.55 26.934C23.3461 27.0962 23.1035 27.2026 22.8459 27.2426C22.5884 27.2826 22.325 27.2548 22.0815 27.162C19.0582 26.0363 16.3121 24.2741 14.0292 21.9946C11.7464 19.7151 9.98008 16.9716 8.84998 13.95C8.74978 13.7031 8.71711 13.4341 8.75533 13.1705C8.79356 12.9068 8.9013 12.6581 9.06748 12.45C9.06748 12.45 11.478 9.42295 11.5185 9.38396C11.8249 9.07493 11.9968 8.65738 11.9968 8.22221C11.9968 7.78703 11.8249 7.36948 11.5185 7.06045C11.472 7.01545 8.71048 3.42295 8.71048 3.42295C8.39683 3.14172 7.98748 2.9911 7.56635 3.00197C7.14522 3.01285 6.74419 3.1844 6.44548 3.48145L4.72048 4.98145C-3.74252 15.1575 22.164 39.627 31.0815 31.2L32.448 29.625C32.7682 29.3283 32.9605 28.9188 32.9843 28.483C33.0081 28.0472 32.8615 27.6192 32.5755 27.2895Z" fill="white"/>
</g>
<defs>
<clipPath id="clip0_1210_32997">
<rect width="36" height="36" fill="white"/>
</clipPath>
</defs>
</svg>
