<svg width="195" height="72" viewBox="0 0 195 72" fill="none" xmlns="http://www.w3.org/2000/svg">
<path d="M83.9152 12.7601C87.5152 1.16006 76.9154 -0.740013 69.9153 0.26001C62.9153 0.76001 58.1792 3.87804 60.4153 2.76001C62.4153 1.76001 73.9153 2.26001 74.9153 11.2602C75.7298 18.5907 59.2486 27.5935 50.4153 31.2602C38.0819 35.5935 12.7152 45.0602 9.9152 48.2602C6.4152 52.2602 11.9152 52.2602 12.4152 51.2602C12.9152 50.2602 20.4152 45.2602 22.4152 44.2602C24.0152 43.4602 36.7485 38.5935 42.9152 36.2602C55.0819 33.2601 80.3152 24.3601 83.9152 12.7601Z" fill="url(#paint0_linear_1281_32892)"/>
<path d="M83.9152 12.7601C87.5152 1.16006 76.9154 -0.740013 69.9153 0.26001C62.9153 0.76001 58.1792 3.87804 60.4153 2.76001C62.4153 1.76001 73.9153 2.26001 74.9153 11.2602C75.7298 18.5907 59.2486 27.5935 50.4153 31.2602C38.0819 35.5935 12.7152 45.0602 9.9152 48.2602C6.4152 52.2602 11.9152 52.2602 12.4152 51.2602C12.9152 50.2602 20.4152 45.2602 22.4152 44.2602C24.0152 43.4602 36.7485 38.5935 42.9152 36.2602C55.0819 33.2601 80.3152 24.3601 83.9152 12.7601Z" fill="url(#paint1_linear_1281_32892)"/>
<path d="M0.256815 70.0282C-1.34319 66.0282 4.92348 67.0282 8.25681 68.0282C10.0902 68.3616 15.1568 68.4283 20.7568 66.0283C27.7568 63.0283 28.7568 54.5284 39.2568 23.5284C47.6568 -1.27162 75.2568 -1.97144 80.2568 1.52864C79.0902 1.19531 74.6568 0.828307 66.2568 2.02831C48.2568 4.02831 45.7568 33.0283 38.2568 52.0283C30.7568 71.0283 2.25681 75.0282 0.256815 70.0282Z" fill="url(#paint2_linear_1281_32892)"/>
<path d="M58.9668 56.426H53.5322V52.9983H58.9668C59.8066 52.9983 60.4902 52.8616 61.0176 52.5881C61.5449 52.3049 61.9307 51.9143 62.1748 51.4163C62.4189 50.9182 62.541 50.3567 62.541 49.7317C62.541 49.0969 62.4189 48.5061 62.1748 47.9592C61.9307 47.4124 61.5449 46.9729 61.0176 46.6409C60.4902 46.3088 59.8066 46.1428 58.9668 46.1428H55.0557V64.0286H50.6611V42.7004H58.9668C60.6367 42.7004 62.0674 43.0032 63.2588 43.6086C64.46 44.2043 65.3779 45.0295 66.0127 46.0842C66.6475 47.1389 66.9648 48.345 66.9648 49.7024C66.9648 51.0793 66.6475 52.2708 66.0127 53.2766C65.3779 54.2825 64.46 55.0588 63.2588 55.6057C62.0674 56.1526 60.6367 56.426 58.9668 56.426ZM73.9521 51.636V64.0286H69.7334V48.179H73.7031L73.9521 51.636ZM78.7275 48.0764L78.6543 51.9875C78.4492 51.9583 78.2002 51.9338 77.9072 51.9143C77.624 51.885 77.3652 51.8704 77.1309 51.8704C76.5352 51.8704 76.0176 51.9485 75.5781 52.1047C75.1484 52.2512 74.7871 52.4709 74.4941 52.7639C74.2109 53.0569 73.9961 53.4133 73.8496 53.8333C73.7129 54.2532 73.6348 54.7317 73.6152 55.2688L72.7656 55.0051C72.7656 53.9797 72.8682 53.0374 73.0732 52.178C73.2783 51.3088 73.5762 50.552 73.9668 49.9075C74.3672 49.2629 74.8555 48.7649 75.4316 48.4133C76.0078 48.0618 76.667 47.886 77.4092 47.886C77.6436 47.886 77.8828 47.9055 78.127 47.9446C78.3711 47.9739 78.5713 48.0178 78.7275 48.0764ZM79.6064 56.2649V55.9573C79.6064 54.7952 79.7725 53.7258 80.1045 52.7493C80.4365 51.7629 80.9199 50.9084 81.5547 50.1858C82.1895 49.4631 82.9707 48.9016 83.8984 48.5012C84.8262 48.0911 85.8906 47.886 87.0918 47.886C88.293 47.886 89.3623 48.0911 90.2998 48.5012C91.2373 48.9016 92.0234 49.4631 92.6582 50.1858C93.3027 50.9084 93.791 51.7629 94.123 52.7493C94.4551 53.7258 94.6211 54.7952 94.6211 55.9573V56.2649C94.6211 57.4172 94.4551 58.4866 94.123 59.4729C93.791 60.4495 93.3027 61.304 92.6582 62.0364C92.0234 62.759 91.2422 63.3206 90.3145 63.7209C89.3867 64.1213 88.3223 64.3215 87.1211 64.3215C85.9199 64.3215 84.8506 64.1213 83.9131 63.7209C82.9854 63.3206 82.1992 62.759 81.5547 62.0364C80.9199 61.304 80.4365 60.4495 80.1045 59.4729C79.7725 58.4866 79.6064 57.4172 79.6064 56.2649ZM83.8252 55.9573V56.2649C83.8252 56.929 83.8838 57.5491 84.001 58.1252C84.1182 58.7014 84.3037 59.2092 84.5576 59.6487C84.8213 60.0784 85.1631 60.4153 85.583 60.6594C86.0029 60.9036 86.5156 61.0256 87.1211 61.0256C87.707 61.0256 88.21 60.9036 88.6299 60.6594C89.0498 60.4153 89.3867 60.0784 89.6406 59.6487C89.8945 59.2092 90.0801 58.7014 90.1973 58.1252C90.3242 57.5491 90.3877 56.929 90.3877 56.2649V55.9573C90.3877 55.3127 90.3242 54.7073 90.1973 54.1409C90.0801 53.5647 89.8896 53.0569 89.626 52.6174C89.3721 52.1682 89.0352 51.8167 88.6152 51.5627C88.1953 51.3088 87.6875 51.1819 87.0918 51.1819C86.4961 51.1819 85.9883 51.3088 85.5684 51.5627C85.1582 51.8167 84.8213 52.1682 84.5576 52.6174C84.3037 53.0569 84.1182 53.5647 84.001 54.1409C83.8838 54.7073 83.8252 55.3127 83.8252 55.9573Z" fill="white"/>
<path d="M101.399 65.0286V43.2104H114.481V45.5541H104.041V52.9263H113.501V55.27H104.041V65.0286H101.399ZM123.481 65.4121C122.444 65.4121 121.503 65.2168 120.658 64.8261C119.812 64.4284 119.141 63.8567 118.644 63.111C118.147 62.3581 117.898 61.449 117.898 60.3837C117.898 59.4462 118.083 58.6862 118.452 58.1038C118.822 57.5144 119.315 57.0527 119.933 56.7189C120.551 56.3851 121.233 56.1365 121.979 55.9732C122.731 55.8027 123.488 55.6678 124.248 55.5683C125.242 55.4405 126.048 55.3446 126.666 55.2807C127.291 55.2097 127.746 55.0925 128.03 54.9291C128.321 54.7658 128.467 54.4817 128.467 54.0769V53.9916C128.467 52.9405 128.179 52.1237 127.604 51.5413C127.035 50.959 126.172 50.6678 125.015 50.6678C123.815 50.6678 122.873 50.9306 122.192 51.4561C121.51 51.9817 121.03 52.5428 120.753 53.1394L118.367 52.2871C118.793 51.2928 119.361 50.5186 120.072 49.9646C120.789 49.4036 121.57 49.0129 122.415 48.7928C123.268 48.5655 124.106 48.4519 124.93 48.4519C125.455 48.4519 126.059 48.5158 126.741 48.6436C127.43 48.7644 128.094 49.0165 128.733 49.4C129.379 49.7835 129.915 50.3624 130.342 51.1365C130.768 51.9107 130.981 52.9476 130.981 54.2473V65.0286H128.467V62.8127H128.339C128.168 63.1678 127.884 63.5477 127.486 63.9526C127.089 64.3574 126.56 64.7019 125.899 64.986C125.239 65.27 124.432 65.4121 123.481 65.4121ZM123.864 63.1536C124.859 63.1536 125.697 62.9583 126.378 62.5676C127.067 62.177 127.586 61.6727 127.934 61.0548C128.289 60.4369 128.467 59.7871 128.467 59.1053V56.8041C128.36 56.932 128.126 57.0492 127.763 57.1557C127.408 57.2551 126.996 57.3439 126.528 57.422C126.066 57.4931 125.615 57.557 125.175 57.6138C124.741 57.6635 124.39 57.7061 124.12 57.7416C123.467 57.8269 122.856 57.9654 122.288 58.1571C121.726 58.3418 121.272 58.6223 120.924 58.9987C120.583 59.3681 120.413 59.8723 120.413 60.5115C120.413 61.3851 120.736 62.0456 121.382 62.4931C122.035 62.9334 122.863 63.1536 123.864 63.1536ZM142.217 65.3695C140.683 65.3695 139.362 65.0073 138.254 64.2828C137.146 63.5584 136.294 62.5605 135.698 61.2892C135.101 60.0179 134.803 58.5655 134.803 56.932C134.803 55.27 135.108 53.8034 135.719 52.5321C136.337 51.2537 137.196 50.2558 138.297 49.5385C139.405 48.8141 140.698 48.4519 142.175 48.4519C143.325 48.4519 144.362 48.6649 145.286 49.0911C146.209 49.5172 146.965 50.1138 147.555 50.8808C148.144 51.6479 148.51 52.5428 148.652 53.5655H146.138C145.946 52.8198 145.52 52.1592 144.859 51.584C144.206 51.0016 143.325 50.7104 142.217 50.7104C141.237 50.7104 140.378 50.9661 139.639 51.4774C138.908 51.9817 138.336 52.6955 137.924 53.6188C137.519 54.535 137.317 55.611 137.317 56.8467C137.317 58.111 137.516 59.2118 137.913 60.1493C138.318 61.0868 138.886 61.8148 139.618 62.3333C140.357 62.8517 141.223 63.111 142.217 63.111C142.871 63.111 143.464 62.9973 143.997 62.77C144.529 62.5428 144.98 62.2161 145.35 61.7899C145.719 61.3638 145.982 60.8524 146.138 60.2558H148.652C148.51 61.2217 148.158 62.0918 147.597 62.8659C147.043 63.633 146.308 64.2438 145.392 64.6983C144.483 65.1458 143.425 65.3695 142.217 65.3695ZM159.444 48.6649V50.7956H150.964V48.6649H159.444ZM153.435 44.7445H155.95V60.3411C155.95 61.0513 156.053 61.584 156.259 61.9391C156.472 62.2871 156.742 62.5215 157.068 62.6422C157.402 62.7558 157.754 62.8127 158.123 62.8127C158.4 62.8127 158.627 62.7985 158.805 62.77C158.982 62.7345 159.124 62.7061 159.231 62.6848L159.742 64.9433C159.572 65.0073 159.334 65.0712 159.028 65.1351C158.723 65.2061 158.336 65.2416 157.867 65.2416C157.157 65.2416 156.461 65.0889 155.779 64.7835C155.104 64.4781 154.543 64.0129 154.096 63.3879C153.656 62.7629 153.435 61.9746 153.435 61.0229V44.7445ZM169.698 65.3695C168.221 65.3695 166.924 65.0179 165.809 64.3148C164.701 63.6117 163.835 62.628 163.21 61.3638C162.592 60.0996 162.283 58.6223 162.283 56.932C162.283 55.2274 162.592 53.7395 163.21 52.4682C163.835 51.1969 164.701 50.2097 165.809 49.5065C166.924 48.8034 168.221 48.4519 169.698 48.4519C171.175 48.4519 172.468 48.8034 173.576 49.5065C174.691 50.2097 175.557 51.1969 176.175 52.4682C176.8 53.7395 177.113 55.2274 177.113 56.932C177.113 58.6223 176.8 60.0996 176.175 61.3638C175.557 62.628 174.691 63.6117 173.576 64.3148C172.468 65.0179 171.175 65.3695 169.698 65.3695ZM169.698 63.111C170.82 63.111 171.743 62.8233 172.468 62.248C173.192 61.6727 173.728 60.9163 174.076 59.9788C174.424 59.0413 174.598 58.0257 174.598 56.932C174.598 55.8382 174.424 54.819 174.076 53.8744C173.728 52.9298 173.192 52.1663 172.468 51.584C171.743 51.0016 170.82 50.7104 169.698 50.7104C168.576 50.7104 167.652 51.0016 166.928 51.584C166.204 52.1663 165.667 52.9298 165.319 53.8744C164.971 54.819 164.797 55.8382 164.797 56.932C164.797 58.0257 164.971 59.0413 165.319 59.9788C165.667 60.9163 166.204 61.6727 166.928 62.248C167.652 62.8233 168.576 63.111 169.698 63.111ZM180.951 65.0286V48.6649H183.38V51.1365H183.55C183.848 50.3269 184.388 49.6699 185.169 49.1656C185.951 48.6614 186.831 48.4092 187.811 48.4092C187.996 48.4092 188.227 48.4128 188.504 48.4199C188.781 48.427 188.99 48.4377 189.132 48.4519V51.0087C189.047 50.9874 188.852 50.9554 188.546 50.9128C188.248 50.8631 187.932 50.8382 187.598 50.8382C186.803 50.8382 186.093 51.0051 185.468 51.3389C184.85 51.6656 184.36 52.1202 183.997 52.7026C183.642 53.2779 183.465 53.9348 183.465 54.6735V65.0286H180.951Z" fill="white"/>
<defs>
<linearGradient id="paint0_linear_1281_32892" x1="58.9153" y1="30.76" x2="64.4153" y2="1.26001" gradientUnits="userSpaceOnUse">
<stop stop-color="#1497D4"/>
<stop offset="1" stop-color="#011C59"/>
</linearGradient>
<linearGradient id="paint1_linear_1281_32892" x1="11.2568" y1="49.0286" x2="22.7568" y2="42.5286" gradientUnits="userSpaceOnUse">
<stop stop-color="#021C56"/>
<stop offset="1" stop-opacity="0"/>
</linearGradient>
<linearGradient id="paint2_linear_1281_32892" x1="2.25681" y1="72.0286" x2="61.7568" y2="8.02855" gradientUnits="userSpaceOnUse">
<stop stop-color="#001754"/>
<stop offset="1" stop-color="#15A1DE"/>
</linearGradient>
</defs>
</svg>
